<svg id="mermaid-1775651494114-almd5yoiv" width="100%" xmlns="http://www.w3.org/2000/svg" class="flowchart" style="max-width: 998.3137817382812px;" viewBox="0 0 998.3137817382812 607" role="graphics-document document" aria-roledescription="flowchart-v2"><style>#mermaid-1775651494114-almd5yoiv{font-family:"trebuchet ms",verdana,arial,sans-serif;font-size:16px;fill:#ffffff;}@keyframes edge-animation-frame{from{stroke-dashoffset:0;}}@keyframes dash{to{stroke-dashoffset:0;}}#mermaid-1775651494114-almd5yoiv .edge-animation-slow{stroke-dasharray:9,5!important;stroke-dashoffset:900;animation:dash 50s linear infinite;stroke-linecap:round;}#mermaid-1775651494114-almd5yoiv .edge-animation-fast{stroke-dasharray:9,5!important;stroke-dashoffset:900;animation:dash 20s linear infinite;stroke-linecap:round;}#mermaid-1775651494114-almd5yoiv .error-icon{fill:#ffffff;}#mermaid-1775651494114-almd5yoiv .error-text{fill:#000000;stroke:#000000;}#mermaid-1775651494114-almd5yoiv .edge-thickness-normal{stroke-width:1px;}#mermaid-1775651494114-almd5yoiv .edge-thickness-thick{stroke-width:3.5px;}#mermaid-1775651494114-almd5yoiv .edge-pattern-solid{stroke-dasharray:0;}#mermaid-1775651494114-almd5yoiv .edge-thickness-invisible{stroke-width:0;fill:none;}#mermaid-1775651494114-almd5yoiv .edge-pattern-dashed{stroke-dasharray:3;}#mermaid-1775651494114-almd5yoiv .edge-pattern-dotted{stroke-dasharray:2;}#mermaid-1775651494114-almd5yoiv .marker{fill:#58a6ff;stroke:#58a6ff;}#mermaid-1775651494114-almd5yoiv .marker.cross{stroke:#58a6ff;}#mermaid-1775651494114-almd5yoiv svg{font-family:"trebuchet ms",verdana,arial,sans-serif;font-size:16px;}#mermaid-1775651494114-almd5yoiv p{margin:0;}#mermaid-1775651494114-almd5yoiv .label{font-family:"trebuchet ms",verdana,arial,sans-serif;color:#ffffff;}#mermaid-1775651494114-almd5yoiv .cluster-label text{fill:#000000;}#mermaid-1775651494114-almd5yoiv .cluster-label span{color:#000000;}#mermaid-1775651494114-almd5yoiv .cluster-label span p{background-color:transparent;}#mermaid-1775651494114-almd5yoiv .label text,#mermaid-1775651494114-almd5yoiv span{fill:#ffffff;color:#ffffff;}#mermaid-1775651494114-almd5yoiv .node rect,#mermaid-1775651494114-almd5yoiv .node circle,#mermaid-1775651494114-almd5yoiv .node ellipse,#mermaid-1775651494114-almd5yoiv .node polygon,#mermaid-1775651494114-almd5yoiv .node path{fill:#1f6feb;stroke:#58a6ff;stroke-width:1px;}#mermaid-1775651494114-almd5yoiv .rough-node .label text,#mermaid-1775651494114-almd5yoiv .node .label text,#mermaid-1775651494114-almd5yoiv .image-shape .label,#mermaid-1775651494114-almd5yoiv .icon-shape .label{text-anchor:middle;}#mermaid-1775651494114-almd5yoiv .node .katex path{fill:#000;stroke:#000;stroke-width:1px;}#mermaid-1775651494114-almd5yoiv .rough-node .label,#mermaid-1775651494114-almd5yoiv .node .label,#mermaid-1775651494114-almd5yoiv .image-shape .label,#mermaid-1775651494114-almd5yoiv .icon-shape .label{text-align:center;}#mermaid-1775651494114-almd5yoiv .node.clickable{cursor:pointer;}#mermaid-1775651494114-almd5yoiv .root .anchor path{fill:#58a6ff!important;stroke-width:0;stroke:#58a6ff;}#mermaid-1775651494114-almd5yoiv .arrowheadPath{fill:#0b0b0b;}#mermaid-1775651494114-almd5yoiv .edgePath .path{stroke:#58a6ff;stroke-width:2.0px;}#mermaid-1775651494114-almd5yoiv .flowchart-link{stroke:#58a6ff;fill:none;}#mermaid-1775651494114-almd5yoiv .edgeLabel{background-color:#238636;text-align:center;}#mermaid-1775651494114-almd5yoiv .edgeLabel p{background-color:#238636;}#mermaid-1775651494114-almd5yoiv .edgeLabel rect{opacity:0.5;background-color:#238636;fill:#238636;}#mermaid-1775651494114-almd5yoiv .labelBkg{background-color:rgba(35, 134, 54, 0.5);}#mermaid-1775651494114-almd5yoiv .cluster rect{fill:#ffffff;stroke:hsl(0, 0%, 90%);stroke-width:1px;}#mermaid-1775651494114-almd5yoiv .cluster text{fill:#000000;}#mermaid-1775651494114-almd5yoiv .cluster span{color:#000000;}#mermaid-1775651494114-almd5yoiv div.mermaidTooltip{position:absolute;text-align:center;max-width:200px;padding:2px;font-family:"trebuchet ms",verdana,arial,sans-serif;font-size:12px;background:#ffffff;border:1px solid hsl(0, 0%, 90%);border-radius:2px;pointer-events:none;z-index:100;}#mermaid-1775651494114-almd5yoiv .flowchartTitleText{text-anchor:middle;font-size:18px;fill:#ffffff;}#mermaid-1775651494114-almd5yoiv rect.text{fill:none;stroke-width:0;}#mermaid-1775651494114-almd5yoiv .icon-shape,#mermaid-1775651494114-almd5yoiv .image-shape{background-color:#238636;text-align:center;}#mermaid-1775651494114-almd5yoiv .icon-shape p,#mermaid-1775651494114-almd5yoiv .image-shape p{background-color:#238636;padding:2px;}#mermaid-1775651494114-almd5yoiv .icon-shape rect,#mermaid-1775651494114-almd5yoiv .image-shape rect{opacity:0.5;background-color:#238636;fill:#238636;}#mermaid-1775651494114-almd5yoiv .label-icon{display:inline-block;height:1em;overflow:visible;vertical-align:-0.125em;}#mermaid-1775651494114-almd5yoiv .node .label-icon path{fill:currentColor;stroke:revert;stroke-width:revert;}#mermaid-1775651494114-almd5yoiv :root{--mermaid-font-family:"trebuchet ms",verdana,arial,sans-serif;}</style><g><marker id="mermaid-1775651494114-almd5yoiv_flowchart-v2-pointEnd" class="marker flowchart-v2" viewBox="0 0 10 10" refX="5" refY="5" markerUnits="userSpaceOnUse" markerWidth="8" markerHeight="8" orient="auto"><path d="M 0 0 L 10 5 L 0 10 z" class="arrowMarkerPath" style="stroke-width: 1; stroke-dasharray: 1, 0;"></path></marker><marker id="mermaid-1775651494114-almd5yoiv_flowchart-v2-pointStart" class="marker flowchart-v2" viewBox="0 0 10 10" refX="4.5" refY="5" markerUnits="userSpaceOnUse" markerWidth="8" markerHeight="8" orient="auto"><path d="M 0 5 L 10 10 L 10 0 z" class="arrowMarkerPath" style="stroke-width: 1; stroke-dasharray: 1, 0;"></path></marker><marker id="mermaid-1775651494114-almd5yoiv_flowchart-v2-circleEnd" class="marker flowchart-v2" viewBox="0 0 10 10" refX="11" refY="5" markerUnits="userSpaceOnUse" markerWidth="11" markerHeight="11" orient="auto"><circle cx="5" cy="5" r="5" class="arrowMarkerPath" style="stroke-width: 1; stroke-dasharray: 1, 0;"></circle></marker><marker id="mermaid-1775651494114-almd5yoiv_flowchart-v2-circleStart" class="marker flowchart-v2" viewBox="0 0 10 10" refX="-1" refY="5" markerUnits="userSpaceOnUse" markerWidth="11" markerHeight="11" orient="auto"><circle cx="5" cy="5" r="5" class="arrowMarkerPath" style="stroke-width: 1; stroke-dasharray: 1, 0;"></circle></marker><marker id="mermaid-1775651494114-almd5yoiv_flowchart-v2-crossEnd" class="marker cross flowchart-v2" viewBox="0 0 11 11" refX="12" refY="5.2" markerUnits="userSpaceOnUse" markerWidth="11" markerHeight="11" orient="auto"><path d="M 1,1 l 9,9 M 10,1 l -9,9" class="arrowMarkerPath" style="stroke-width: 2; stroke-dasharray: 1, 0;"></path></marker><marker id="mermaid-1775651494114-almd5yoiv_flowchart-v2-crossStart" class="marker cross flowchart-v2" viewBox="0 0 11 11" refX="-1" refY="5.2" markerUnits="userSpaceOnUse" markerWidth="11" markerHeight="11" orient="auto"><path d="M 1,1 l 9,9 M 10,1 l -9,9" class="arrowMarkerPath" style="stroke-width: 2; stroke-dasharray: 1, 0;"></path></marker><g class="root"><g class="clusters"><g class="cluster " id="subGraph0" data-look="classic"><rect style="" x="36.3046875" y="112" width="954.0091171264648" height="487"></rect><g class="cluster-label " transform="translate(465.3326835632324, 112)"><foreignObject width="95.953125" height="24"><div xmlns="http://www.w3.org/1999/xhtml" style="display: table-cell; white-space: nowrap; line-height: 1.5; max-width: 200px; text-align: center;"><span class="nodeLabel "><p>Microsoft 365</p></span></div></foreignObject></g></g></g><g class="edgePaths"><path d="M76.305,62L76.305,66.167C76.305,70.333,76.305,78.667,76.305,87C76.305,95.333,76.305,103.667,103.612,113.754C130.919,123.842,185.534,135.684,212.841,141.605L240.148,147.526" id="L_A_E_0" class=" edge-thickness-normal edge-pattern-solid edge-thickness-normal edge-pattern-solid flowchart-link" style="" marker-end="url(#mermaid-1775651494114-almd5yoiv_flowchart-v2-pointEnd)"></path><path d="M290.422,62L290.422,66.167C290.422,70.333,290.422,78.667,290.422,87C290.422,95.333,290.422,103.667,293.702,111.582C296.982,119.497,303.542,126.993,306.822,130.741L310.102,134.49" id="L_B_E_0" class=" edge-thickness-normal edge-pattern-solid edge-thickness-normal edge-pattern-solid flowchart-link" style="" marker-end="url(#mermaid-1775651494114-almd5yoiv_flowchart-v2-pointEnd)"></path><path d="M714.355,62L714.355,66.167C714.355,70.333,714.355,78.667,714.355,87C714.355,95.333,714.355,103.667,668.686,114.815C623.017,125.964,531.678,139.928,486.009,146.911L440.339,153.893" id="L_C_E_0" class=" edge-thickness-normal edge-pattern-solid edge-thickness-normal edge-pattern-solid flowchart-link" style="" marker-end="url(#mermaid-1775651494114-almd5yoiv_flowchart-v2-pointEnd)"></path><path d="M340.221,200.5L340.138,204.583C340.055,208.667,339.888,216.833,372.224,227.163C404.561,237.492,469.401,249.983,501.82,256.229L534.24,262.475" id="L_E_F_0" class=" edge-thickness-normal edge-pattern-solid edge-thickness-normal edge-pattern-solid flowchart-link" style="" marker-end="url(#mermaid-1775651494114-almd5yoiv_flowchart-v2-pointEnd)"></path><path d="M636.629,188.5L636.546,194.583C636.462,200.667,636.296,212.833,636.283,222.5C636.269,232.167,636.41,239.334,636.48,242.917L636.55,246.501" id="L_D_F_0" class=" edge-thickness-normal edge-pattern-solid edge-thickness-normal edge-pattern-solid flowchart-link" style="" marker-end="url(#mermaid-1775651494114-almd5yoiv_flowchart-v2-pointEnd)"></path><path d="M870.957,188.5L870.874,194.583C870.79,200.667,870.624,212.833,848.627,224.301C826.629,235.768,782.802,246.537,760.888,251.921L738.974,257.305" id="L_S_F_0" class=" edge-thickness-normal edge-pattern-solid edge-thickness-normal edge-pattern-solid flowchart-link" style="" marker-end="url(#mermaid-1775651494114-almd5yoiv_flowchart-v2-pointEnd)"></path><path d="M636.629,313.5L636.546,317.583C636.462,321.667,636.296,329.833,636.283,337.5C636.269,345.167,636.41,352.334,636.48,355.917L636.55,359.501" id="L_F_G_0" class=" edge-thickness-normal edge-pattern-solid edge-thickness-normal edge-pattern-solid flowchart-link" style="" marker-end="url(#mermaid-1775651494114-almd5yoiv_flowchart-v2-pointEnd)"></path><path d="M550.02,416.83L483.23,425.859C416.44,434.887,282.861,452.943,216.071,465.472C149.281,478,149.281,485,149.281,488.5L149.281,492" id="L_G_H_0" class=" edge-thickness-normal edge-pattern-solid edge-thickness-normal edge-pattern-solid flowchart-link" style="" marker-end="url(#mermaid-1775651494114-almd5yoiv_flowchart-v2-pointEnd)"></path><path d="M550.02,426.362L519.434,433.801C488.849,441.241,427.678,456.121,397.093,469.06C366.508,482,366.508,493,366.508,498.5L366.508,504" id="L_G_I_0" class=" edge-thickness-normal edge-pattern-solid edge-thickness-normal edge-pattern-solid flowchart-link" style="" marker-end="url(#mermaid-1775651494114-almd5yoiv_flowchart-v2-pointEnd)"></path><path d="M664.417,446.5L667.124,450.583C669.831,454.667,675.244,462.833,677.951,472.417C680.658,482,680.658,493,680.658,498.5L680.658,504" id="L_G_J_0" class=" edge-thickness-normal edge-pattern-solid edge-thickness-normal edge-pattern-solid flowchart-link" style="" marker-end="url(#mermaid-1775651494114-almd5yoiv_flowchart-v2-pointEnd)"></path><path d="M723.238,428.578L749.432,435.649C775.625,442.719,828.013,456.859,854.206,469.43C880.4,482,880.4,493,880.4,498.5L880.4,504" id="L_G_K_0" class=" edge-thickness-normal edge-pattern-solid edge-thickness-normal edge-pattern-solid flowchart-link" style="" marker-end="url(#mermaid-1775651494114-almd5yoiv_flowchart-v2-pointEnd)"></path></g><g class="edgeLabels"><g class="edgeLabel"><g class="label" transform="translate(0, 0)"><foreignObject width="0" height="0"><div xmlns="http://www.w3.org/1999/xhtml" class="labelBkg" style="display: table-cell; white-space: nowrap; line-height: 1.5; max-width: 200px; text-align: center;"><span class="edgeLabel "></span></div></foreignObject></g></g><g class="edgeLabel"><g class="label" transform="translate(0, 0)"><foreignObject width="0" height="0"><div xmlns="http://www.w3.org/1999/xhtml" class="labelBkg" style="display: table-cell; white-space: nowrap; line-height: 1.5; max-width: 200px; text-align: center;"><span class="edgeLabel "></span></div></foreignObject></g></g><g class="edgeLabel"><g class="label" transform="translate(0, 0)"><foreignObject width="0" height="0"><div xmlns="http://www.w3.org/1999/xhtml" class="labelBkg" style="display: table-cell; white-space: nowrap; line-height: 1.5; max-width: 200px; text-align: center;"><span class="edgeLabel "></span></div></foreignObject></g></g><g class="edgeLabel"><g class="label" transform="translate(0, 0)"><foreignObject width="0" height="0"><div xmlns="http://www.w3.org/1999/xhtml" class="labelBkg" style="display: table-cell; white-space: nowrap; line-height: 1.5; max-width: 200px; text-align: center;"><span class="edgeLabel "></span></div></foreignObject></g></g><g class="edgeLabel"><g class="label" transform="translate(0, 0)"><foreignObject width="0" height="0"><div xmlns="http://www.w3.org/1999/xhtml" class="labelBkg" style="display: table-cell; white-space: nowrap; line-height: 1.5; max-width: 200px; text-align: center;"><span class="edgeLabel "></span></div></foreignObject></g></g><g class="edgeLabel"><g class="label" transform="translate(0, 0)"><foreignObject width="0" height="0"><div xmlns="http://www.w3.org/1999/xhtml" class="labelBkg" style="display: table-cell; white-space: nowrap; line-height: 1.5; max-width: 200px; text-align: center;"><span class="edgeLabel "></span></div></foreignObject></g></g><g class="edgeLabel"><g class="label" transform="translate(0, 0)"><foreignObject width="0" height="0"><div xmlns="http://www.w3.org/1999/xhtml" class="labelBkg" style="display: table-cell; white-space: nowrap; line-height: 1.5; max-width: 200px; text-align: center;"><span class="edgeLabel "></span></div></foreignObject></g></g><g class="edgeLabel"><g class="label" transform="translate(0, 0)"><foreignObject width="0" height="0"><div xmlns="http://www.w3.org/1999/xhtml" class="labelBkg" style="display: table-cell; white-space: nowrap; line-height: 1.5; max-width: 200px; text-align: center;"><span class="edgeLabel "></span></div></foreignObject></g></g><g class="edgeLabel"><g class="label" transform="translate(0, 0)"><foreignObject width="0" height="0"><div xmlns="http://www.w3.org/1999/xhtml" class="labelBkg" style="display: table-cell; white-space: nowrap; line-height: 1.5; max-width: 200px; text-align: center;"><span class="edgeLabel "></span></div></foreignObject></g></g><g class="edgeLabel"><g class="label" transform="translate(0, 0)"><foreignObject width="0" height="0"><div xmlns="http://www.w3.org/1999/xhtml" class="labelBkg" style="display: table-cell; white-space: nowrap; line-height: 1.5; max-width: 200px; text-align: center;"><span class="edgeLabel "></span></div></foreignObject></g></g><g class="edgeLabel"><g class="label" transform="translate(0, 0)"><foreignObject width="0" height="0"><div xmlns="http://www.w3.org/1999/xhtml" class="labelBkg" style="display: table-cell; white-space: nowrap; line-height: 1.5; max-width: 200px; text-align: center;"><span class="edgeLabel "></span></div></foreignObject></g></g></g><g class="nodes"><g class="node default  " id="flowchart-A-0" transform="translate(76.3046875, 35)"><rect class="basic label-container" style="" x="-68.3046875" y="-27" width="136.609375" height="54"></rect><g class="label" style="" transform="translate(-38.3046875, -12)"><rect></rect><foreignObject width="76.609375" height="24"><div xmlns="http://www.w3.org/1999/xhtml" style="display: table-cell; white-space: nowrap; line-height: 1.5; max-width: 200px; text-align: center;"><span class="nodeLabel "><p>BambooHR</p></span></div></foreignObject></g></g><g class="node default  " id="flowchart-E-1" transform="translate(339.7213554382324, 168.5)"><polygon points="0,0 176.328125,0 176.328125,-63 0,-63 0,0 -8,0 184.328125,0 184.328125,-63 -8,-63 -8,0" class="label-container" transform="translate(-88.1640625,31.5)"></polygon><g class="label" style="" transform="translate(-80.6640625, -24)"><rect></rect><foreignObject width="161.328125" height="48"><div xmlns="http://www.w3.org/1999/xhtml" style="display: table-cell; white-space: nowrap; line-height: 1.5; max-width: 200px; text-align: center;"><span class="nodeLabel "><p>Microsoft 365<br/>ingestion and mapping</p></span></div></foreignObject></g></g><g class="node default  " id="flowchart-B-2" transform="translate(290.421875, 35)"><rect class="basic label-container" style="" x="-95.8125" y="-27" width="191.625" height="54"></rect><g class="label" style="" transform="translate(-65.8125, -12)"><rect></rect><foreignObject width="131.625" height="24"><div xmlns="http://www.w3.org/1999/xhtml" style="display: table-cell; white-space: nowrap; line-height: 1.5; max-width: 200px; text-align: center;"><span class="nodeLabel "><p>Custom HR system</p></span></div></foreignObject></g></g><g class="node default  " id="flowchart-C-4" transform="translate(714.35546875, 35)"><rect class="basic label-container" style="" x="-122.234375" y="-27" width="244.46875" height="54"></rect><g class="label" style="" transform="translate(-92.234375, -12)"><rect></rect><foreignObject width="184.46875" height="24"><div xmlns="http://www.w3.org/1999/xhtml" style="display: table-cell; white-space: nowrap; line-height: 1.5; max-width: 200px; text-align: center;"><span class="nodeLabel "><p>Talent or people platform</p></span></div></foreignObject></g></g><g class="node default  " id="flowchart-F-7" transform="translate(636.12890625, 281.5)"><polygon points="0,0 180.921875,0 180.921875,-63 0,-63 0,0 -8,0 188.921875,0 188.921875,-63 -8,-63 -8,0" class="label-container" transform="translate(-90.4609375,31.5)"></polygon><g class="label" style="" transform="translate(-82.9609375, -24)"><rect></rect><foreignObject width="165.921875" height="48"><div xmlns="http://www.w3.org/1999/xhtml" style="display: table-cell; white-space: nowrap; line-height: 1.5; max-width: 200px; text-align: center;"><span class="nodeLabel "><p>Profile composition<br/>and source precedence</p></span></div></foreignObject></g></g><g class="node default  " id="flowchart-D-8" transform="translate(636.12890625, 168.5)"><g class="basic label-container"><path d="M-45.59375 -19.5 C-35.428951092377034 -19.5, -25.264152184754064 -19.5, 0 -19.5 C15.334730950584607 -19.5, 30.669461901169214 -19.5, 45.59375 -19.5 C49.30297823171083 -12.081543536578337, 53.01220646342166 -4.6630870731566745, 55.34375 0 C51.4870673941103 7.713365211779407, 47.630384788220596 15.426730423558814, 45.59375 19.5 C34.583579347200974 19.5, 23.57340869440195 19.5, 0 19.5 C-16.899361283361316 19.5, -33.79872256672263 19.5, -45.59375 19.5 C-48.60341019886583 13.480679602268344, -51.613070397731654 7.461359204536688, -55.34375 0 C-53.21252089601683 -4.26245820796634, -51.08129179203366 -8.52491641593268, -45.59375 -19.5" stroke="none" stroke-width="0" fill="#1f6feb" style=""></path><path d="M-45.59375 -19.5 C-35.2394670308454 -19.5, -24.885184061690794 -19.5, 0 -19.5 M-45.59375 -19.5 C-36.243147082221284 -19.5, -26.892544164442576 -19.5, 0 -19.5 M0 -19.5 C13.204631830969854 -19.5, 26.409263661939708 -19.5, 45.59375 -19.5 M0 -19.5 C9.615518518879302 -19.5, 19.231037037758604 -19.5, 45.59375 -19.5 M45.59375 -19.5 C47.9967535662056 -14.693992867588802, 50.399757132411196 -9.887985735177605, 55.34375 0 M45.59375 -19.5 C49.168582253647656 -12.35033549270468, 52.74341450729532 -5.20067098540936, 55.34375 0 M55.34375 0 C51.84164358296855 7.004212834062897, 48.3395371659371 14.008425668125794, 45.59375 19.5 M55.34375 0 C53.03715463227279 4.613190735454424, 50.730559264545576 9.226381470908848, 45.59375 19.5 M45.59375 19.5 C28.964158721051287 19.5, 12.334567442102575 19.5, 0 19.5 M45.59375 19.5 C35.18619368558823 19.5, 24.77863737117646 19.5, 0 19.5 M0 19.5 C-10.141922277598551 19.5, -20.283844555197103 19.5, -45.59375 19.5 M0 19.5 C-11.32868743818502 19.5, -22.65737487637004 19.5, -45.59375 19.5 M-45.59375 19.5 C-48.63657192459457 13.414356150810864, -51.67939384918913 7.32871230162173, -55.34375 0 M-45.59375 19.5 C-49.27850374034469 12.130492519310618, -52.96325748068938 4.760985038621238, -55.34375 0 M-55.34375 0 C-51.72857821594081 -7.230343568118392, -48.11340643188161 -14.460687136236784, -45.59375 -19.5 M-55.34375 0 C-52.35084691770594 -5.985806164588126, -49.357943835411874 -11.971612329176253, -45.59375 -19.5" stroke="#58a6ff" stroke-width="1.3" fill="none" stroke-dasharray="0 0" style=""></path></g><g class="label" style="" transform="translate(-28.6875, -12)"><rect></rect><foreignObject width="57.375" height="24"><div xmlns="http://www.w3.org/1999/xhtml" style="display: table-cell; white-space: nowrap; line-height: 1.5; max-width: 200px; text-align: center;"><span class="nodeLabel "><p>Entra ID</p></span></div></foreignObject></g></g><g class="node default  " id="flowchart-S-10" transform="translate(870.45703125, 168.5)"><g class="basic label-container"><path d="M-75.10677083333333 -19.5 C-49.99599384840957 -19.5, -24.8852168634858 -19.5, 0 -19.5 C19.032123534185775 -19.5, 38.06424706837155 -19.5, 75.10677083333333 -19.5 C77.86049747635468 -13.99254671395729, 80.61422411937603 -8.485093427914581, 84.85677083333333 0 C81.48843627596689 6.736669114732888, 78.12010171860044 13.473338229465776, 75.10677083333333 19.5 C57.08414167742015 19.5, 39.06151252150698 19.5, 0 19.5 C-21.633490456557507 19.5, -43.26698091311501 19.5, -75.10677083333333 19.5 C-77.89057031176263 13.932401043141404, -80.67436979019193 8.364802086282806, -84.85677083333333 0 C-81.07339380660116 -7.56675405346435, -77.29001677986898 -15.1335081069287, -75.10677083333333 -19.5" stroke="none" stroke-width="0" fill="#1f6feb" style=""></path><path d="M-75.10677083333333 -19.5 C-47.56262211590209 -19.5, -20.018473398470846 -19.5, 0 -19.5 M-75.10677083333333 -19.5 C-47.41475966466058 -19.5, -19.72274849598783 -19.5, 0 -19.5 M0 -19.5 C15.773265891800662 -19.5, 31.546531783601324 -19.5, 75.10677083333333 -19.5 M0 -19.5 C19.546401979573616 -19.5, 39.09280395914723 -19.5, 75.10677083333333 -19.5 M75.10677083333333 -19.5 C78.61609158766512 -12.481358491336415, 82.1254123419969 -5.462716982672831, 84.85677083333333 0 M75.10677083333333 -19.5 C77.69288070999156 -14.327780246683545, 80.27899058664978 -9.155560493367089, 84.85677083333333 0 M84.85677083333333 0 C82.23924121118968 5.235059244287291, 79.62171158904604 10.470118488574583, 75.10677083333333 19.5 M84.85677083333333 0 C81.213246201339 7.287049263988643, 77.56972156934468 14.574098527977286, 75.10677083333333 19.5 M75.10677083333333 19.5 C51.97158555985065 19.5, 28.836400286367976 19.5, 0 19.5 M75.10677083333333 19.5 C52.49527293047369 19.5, 29.88377502761405 19.5, 0 19.5 M0 19.5 C-19.28657150891466 19.5, -38.57314301782932 19.5, -75.10677083333333 19.5 M0 19.5 C-19.410901114764595 19.5, -38.82180222952919 19.5, -75.10677083333333 19.5 M-75.10677083333333 19.5 C-77.86177136710043 13.9899989324658, -80.61677190086753 8.479997864931601, -84.85677083333333 0 M-75.10677083333333 19.5 C-77.59773847189756 14.518064722871536, -80.0887061104618 9.53612944574307, -84.85677083333333 0 M-84.85677083333333 0 C-81.8149038362837 -6.083733994099249, -78.77303683923408 -12.167467988198498, -75.10677083333333 -19.5 M-84.85677083333333 0 C-82.87120600877174 -3.9711296491231822, -80.88564118421014 -7.9422592982463645, -75.10677083333333 -19.5" stroke="#58a6ff" stroke-width="1.3" fill="none" stroke-dasharray="0 0" style=""></path></g><g class="label" style="" transform="translate(-53.984375, -12)"><rect></rect><foreignObject width="107.96875" height="24"><div xmlns="http://www.w3.org/1999/xhtml" style="display: table-cell; white-space: nowrap; line-height: 1.5; max-width: 200px; text-align: center;"><span class="nodeLabel "><p>SharePoint UPA</p></span></div></foreignObject></g></g><g class="node default  " id="flowchart-G-13" transform="translate(636.12890625, 404.5)"><g transform="translate(2.5, 2.5)" class="basic label-container"><path d="M-89.109375 -44 L84.109375 -44 L84.109375 39 L-89.109375 39 L-89.109375 -44" stroke="none" stroke-width="0" fill="#1f6feb" style=""></path><path d="M-89.109375 -44 C-46.80697019157739 -44, -4.504565383154784 -44, 84.109375 -44 M-89.109375 -44 C-30.464398901517107 -44, 28.180577196965785 -44, 84.109375 -44 M84.109375 -44 C84.109375 -14.95051819192313, 84.109375 14.098963616153739, 84.109375 39 M84.109375 -44 C84.109375 -20.333003375093774, 84.109375 3.333993249812451, 84.109375 39 M84.109375 39 C22.23893092829571 39, -39.63151314340858 39, -89.109375 39 M84.109375 39 C28.250589480873103 39, -27.608196038253794 39, -89.109375 39 M-89.109375 39 C-89.109375 10.144272299841859, -89.109375 -18.711455400316282, -89.109375 -44 M-89.109375 39 C-89.109375 18.560293351116538, -89.109375 -1.8794132977669236, -89.109375 -44 M-89.109375 -39 C-51.11405968397389 -39, -13.118744367947784 -39, 84.109375 -39 M-89.109375 -39 C-38.49326956332148 -39, 12.122835873357033 -39, 84.109375 -39 M-84.109375 -44 C-84.109375 -16.83218047346459, -84.109375 10.335639053070821, -84.109375 39 M-84.109375 -44 C-84.109375 -23.99210288175126, -84.109375 -3.9842057635025228, -84.109375 39" stroke="#58a6ff" stroke-width="1.3" fill="none" stroke-dasharray="0 0" style=""></path></g><g class="label" style="" transform="translate(-66.609375, -21.5)"><rect></rect><foreignObject width="138.21875" height="48"><div xmlns="http://www.w3.org/1999/xhtml" style="display: table-cell; white-space: nowrap; line-height: 1.5; max-width: 200px; text-align: center;"><span class="nodeLabel "><p>Microsoft 365<br/>profile experiences</p></span></div></foreignObject></g></g><g class="node default  " id="flowchart-H-16" transform="translate(149.28125, 535)"><rect class="basic label-container" style="" x="-77.9765625" y="-39" width="155.953125" height="78"></rect><g class="label" style="" transform="translate(-47.9765625, -24)"><rect></rect><foreignObject width="95.953125" height="48"><div xmlns="http://www.w3.org/1999/xhtml" style="display: table-cell; white-space: nowrap; line-height: 1.5; max-width: 200px; text-align: center;"><span class="nodeLabel "><p>Microsoft 365<br/>Copilot</p></span></div></foreignObject></g></g><g class="node default  " id="flowchart-I-18" transform="translate(366.5078125, 535)"><rect class="basic label-container" style="" x="-89.25" y="-27" width="178.5" height="54"></rect><g class="label" style="" transform="translate(-59.25, -12)"><rect></rect><foreignObject width="118.5" height="24"><div xmlns="http://www.w3.org/1999/xhtml" style="display: table-cell; white-space: nowrap; line-height: 1.5; max-width: 200px; text-align: center;"><span class="nodeLabel "><p>Microsoft Search</p></span></div></foreignObject></g></g><g class="node default  " id="flowchart-J-20" transform="translate(680.6575546264648, 535)"><rect class="basic label-container" style="" x="-74.828125" y="-27" width="149.65625" height="54"></rect><g class="label" style="" transform="translate(-44.828125, -12)"><rect></rect><foreignObject width="89.65625" height="24"><div xmlns="http://www.w3.org/1999/xhtml" style="display: table-cell; white-space: nowrap; line-height: 1.5; max-width: 200px; text-align: center;"><span class="nodeLabel "><p>Profile cards</p></span></div></foreignObject></g></g><g class="node default  " id="flowchart-K-22" transform="translate(880.3997421264648, 535)"><rect class="basic label-container" style="" x="-74.9140625" y="-27" width="149.828125" height="54"></rect><g class="label" style="" transform="translate(-44.9140625, -12)"><rect></rect><foreignObject width="89.828125" height="24"><div xmlns="http://www.w3.org/1999/xhtml" style="display: table-cell; white-space: nowrap; line-height: 1.5; max-width: 200px; text-align: center;"><span class="nodeLabel "><p>Org Explorer</p></span></div></foreignObject></g></g></g></g></g></svg>