<svg xmlns="http://www.w3.org/2000/svg" width="100" height="100" viewBox="0 0 100 100">
  <g id="e62ed709-0fa4-4df5-ad00-6a829acdb189">
    <g>
      <path d="M59.5,11.417a2.778,2.778,0,0,0,0,5.556,34.511,34.511,0,1,1-34.244,38.822c-.106-.85-.117-1.717-.161-2.578H30.811a1.433,1.433,0,0,0,1.228-2.172L23.956,37.561a1.433,1.433,0,0,0-2.45,0L13.244,51.044a1.433,1.433,0,0,0,1.222,2.183h5.078c.044,1.111.067,2.189.2,3.261a39.667,39.667,0,0,0,1.472,6.8H3.889a2.833,2.833,0,0,0,0,5.667H23.478a39.394,39.394,0,0,0,1.933,3.528H9.389a2.839,2.839,0,0,0,0,5.672H29.65a40.394,40.394,0,0,0,3.561,3.539H20.556a2.833,2.833,0,0,0,0,5.667H41.55l.1,0A40.056,40.056,0,1,0,59.5,11.417Z" />
      <path d="M57.222,57.778H77.633a2.778,2.778,0,0,0,0-5.556H60v-23.11a2.778,2.778,0,0,0-5.556,0V55A2.778,2.778,0,0,0,57.222,57.778Z" />
    </g>
  </g>
</svg>
