<svg xmlns="http://www.w3.org/2000/svg" width="100" height="100" viewBox="0 0 100 100">
  <defs>
    <linearGradient id="gearGradient" x1="26.817" y1="13.827" x2="26.817" y2="67.017" gradientUnits="userSpaceOnUse">
      <stop offset="0" stop-color="#0078d4" />
      <stop offset="1" stop-color="#83b9f9" />
    </linearGradient>
  </defs>
  
  <!-- Gear with blue gradient (scaled up ~5.5x from 18px to 100px) -->
  <path d="M53.597,52.895v-6.111L52.778,46.355,46.235,44.333l-1.717-4.189,3.333-7.083-4.306-4.289-.856.428-6.111,3.111-4.178-1.717L29.694,23.18h-6.111l-.317.861-2.017,6.55-4.189,1.717-7.083-3.333-4.3,4.3.428.861,3.111,6.111L7.5,44.422,0,47.111v6.111l.856.317,6.544,2.144,1.717,4.183-3.333,7.089,4.289,4.289.856-.428,6.111-3.111,4.183,1.717,2.683,7.394h6.111l.317-.861,2.017-6.55,4.183-1.717,7.083,3.333,4.289-4.289-.428-.861-3.111-6.111,1.722-4.178ZM26.817,59.028A8.917,8.917,0,1,1,35.733,50.111h0A9.156,9.156,0,0,1,26.817,59.028Z" 
        fill="url(#gearGradient)" />
  
  <!-- Three horizontal lines (scaled up ~5.5x) -->
  <path d="M95.833,33.806H63.246a4.167,4.167,0,0,1,0-8.333H95.833a4.167,4.167,0,0,1,0,8.333Z" fill="#b3b3b3" />
  <path d="M95.833,54.583H63.246a4.167,4.167,0,0,1,0-8.333H95.833a4.167,4.167,0,0,1,0,8.333Z" fill="#a3a3a3" />
  <path d="M95.833,75.361H63.246a4.167,4.167,0,0,1,0-8.333H95.833a4.167,4.167,0,0,1,0,8.333Z" fill="#999" />
</svg>