<svg xmlns="http://www.w3.org/2000/svg" width="100" height="100" viewBox="0 0 100 100">
  <defs>
    <linearGradient id="f5593596-c7f5-408d-bb0f-deca8de3fbf8" x1="35.033" y1="94.6" x2="35.033" y2="29.733" gradientUnits="userSpaceOnUse">
      <stop offset="0" stop-color="#0078d4" />
      <stop offset="1" stop-color="#5ea0ef" />
    </linearGradient>
    <linearGradient id="ff10ce2c-b8ab-468e-b11d-50e2db8c3979" x1="-8426.689" y1="8696.444" x2="-8421.956" y2="8637.556" gradientTransform="matrix(1, 0, 0, -1, 8467.778, 8697.867)" gradientUnits="userSpaceOnUse">
      <stop offset="0" stop-color="#5ea0ef" />
      <stop offset="1" stop-color="#0078d4" />
    </linearGradient>
    <linearGradient id="afb86f0c-962a-4b9d-a21c-a63b7940ca91" x1="-8393.044" y1="8600.089" x2="-8393.044" y2="8647.361" gradientTransform="matrix(1, 0, 0, -1, 8467.778, 8697.867)" gradientUnits="userSpaceOnUse">
      <stop offset="0.001" stop-color="#f78d1e" />
      <stop offset="1" stop-color="#faa21d" />
    </linearGradient>
    <linearGradient id="a0bec1e6-97fb-4130-a39c-8a00fff8eb7b" x1="73.633" y1="61.894" x2="73.633" y2="85.083" gradientUnits="userSpaceOnUse">
      <stop offset="0" stop-color="#ef7100" />
      <stop offset="0.999" stop-color="#d15900" />
    </linearGradient>
  </defs>
  <g id="a004a460-ff9f-44bb-9237-b9f36f8ba86b">
    <g>
      <path d="M54.811,82.222l-.489-1.217c-1.156-.383-4.406-1.461-6.272-2.089a1.478,1.478,0,0,1-.994-1.406V70.000a1.467,1.467,0,0,1,.972-1.383c1.872-.667,5.2-1.867,6.356-2.294l.511-1.194c-.556-1.111-2.111-4.122-3.006-5.889a1.483,1.483,0,0,1,.261-1.706c1.583-1.589,3.739-3.717,5.3-5.283a1.478,1.478,0,0,1,1.667-.306c1.767.856,4.811,2.294,5.911,2.822l1.217-.483c.2-.633.628-1.889,1.078-3.211A33.428,33.428,0,0,0,53.672,43.111a40.783,40.783,0,0,0-11.833-1.667,46.144,46.144,0,0,0-12.022,1.483C13.611,47.289,4.778,61.017,2.778,81.111a7,7,0,0,0,6.194,7.694H51.844a1.317,1.317,0,0,1,.144-.611C52.267,86.422,54.306,82.739,54.811,82.222Z" fill="url(#f5593596-c7f5-408d-bb0f-deca8de3fbf8)" />
      <path d="M41.844,46.611A21.978,21.978,0,0,1,30,43.122l11.856,30.689,11.667-30.5A21.633,21.633,0,0,1,41.844,46.611Z" fill="#fff" opacity="0.8" />
      <circle cx="41.889" cy="24.672" r="21.894" fill="url(#ff10ce2c-b8ab-468e-b11d-50e2db8c3979)" />
      <path d="M96.761,70.583l-6.028-1.989-1.522-3.7,2.717-5.767a.789.789,0,0,0-.139-.833l-3.044-3.044a.75.75,0,0,0-.856-.122l-5.667,2.867-3.672-1.506-2.194-6.05a.744.744,0,0,0-.689-.489h-4.328a.75.75,0,0,0-.711.511l-.994,3.006-1.017,3.022-3.672,1.522-5.683-2.717a.706.706,0,0,0-.833.139l-3.028,3.028a.7.7,0,0,0-.139.85l2.883,5.689-1.506,3.672-6.15,2.194a.739.739,0,0,0-.5.711v4.328a.75.75,0,0,0,.506.711l6.033,2.006,1.522,3.678-2.722,5.767a.722.722,0,0,0,.1.772l3.022,3.033,3.022,3.044a.756.756,0,0,0,.856.144l5.667-2.883,3.672,1.5,2.194,6.05a.772.772,0,0,0,.711.489h4.322a.744.744,0,0,0,.711-.506l1.989-6.033,3.7-1.522,5.767,2.722a.744.744,0,0,0,.828-.144l3.028-3.044a.717.717,0,0,0,.144-.856l-2.867-5.661,1.506-3.656,6.028-2.222a.694.694,0,0,0,.489-.689v-4.322A.75.75,0,0,0,96.761,70.583Z" fill="url(#afb86f0c-962a-4b9d-a21c-a63b7940ca91)" />
      <circle cx="73.633" cy="73.589" r="10.372" fill="url(#a0bec1e6-97fb-4130-a39c-8a00fff8eb7b)" />
      <path d="M80.933,74.15v-1.111a.744.744,0,0,0-.739-.739h-5.261v-5.256a.733.733,0,0,0-.739-.739h-1.111a.739.739,0,0,0-.739.739v5.256h-5.261a.744.744,0,0,0-.739.739v1.111a.739.739,0,0,0,.739.739h5.261v5.261a.739.739,0,0,0,.739.739h1.111a.733.733,0,0,0,.739-.739V74.889h5.261A.739.739,0,0,0,80.933,74.15Z" fill="#fff" />
    </g>
  </g>
</svg>
