<?xml version="1.0" standalone="no"?>
<!DOCTYPE svg PUBLIC "-//W3C//DTD SVG 20010904//EN"
 "http://www.w3.org/TR/2001/REC-SVG-20010904/DTD/svg10.dtd">
<svg version="1.0" xmlns="http://www.w3.org/2000/svg"
 width="255.000000pt" height="255.000000pt" viewBox="0 0 255.000000 255.000000"
 preserveAspectRatio="xMidYMid meet">

<g transform="translate(0.000000,255.000000) scale(0.100000,-0.100000)"
fill="#000000" stroke="none">
<path d="M1135 2539 c-177 -19 -378 -89 -543 -190 -120 -74 -317 -271 -391
-391 -262 -428 -262 -938 0 -1366 74 -120 271 -317 391 -391 525 -322 1179
-243 1599 195 407 425 470 1055 158 1561 -75 121 -254 302 -378 382 -175 112
-367 180 -572 201 -113 11 -148 11 -264 -1z m298 -806 c183 -100 219 -363 69
-507 l-41 -40 47 -27 c115 -66 221 -242 210 -351 -3 -32 -4 -33 -52 -33 l-50
0 -16 67 c-39 162 -168 268 -325 268 -157 0 -286 -106 -325 -268 l-16 -67 -50
0 c-47 0 -49 1 -52 30 -6 47 27 151 68 213 39 61 104 123 157 150 l33 17 -42
40 c-150 145 -114 408 70 508 94 51 221 51 315 0z"/>
<path d="M1183 1635 c-170 -85 -140 -344 46 -384 235 -50 353 276 138 384 -30
14 -68 25 -92 25 -24 0 -62 -11 -92 -25z"/>
</g>
</svg>
