<?xml version="1.0" encoding="UTF-8"?>
<svg xmlns="http://www.w3.org/2000/svg" xmlns:xlink="http://www.w3.org/1999/xlink" width="24px" height="24px" viewBox="0 0 24 24" version="1.1">
<g id="surface1">
<path style=" stroke:none;fill-rule:nonzero;fill:rgb(0%,0%,0%);fill-opacity:1;" d="M 10.675781 0.101562 C 9.007812 0.28125 7.117188 0.941406 5.566406 1.890625 C 4.4375 2.585938 2.585938 4.4375 1.890625 5.566406 C -0.574219 9.59375 -0.574219 14.390625 1.890625 18.414062 C 2.585938 19.542969 4.4375 21.394531 5.566406 22.089844 C 10.503906 25.117188 16.65625 24.375 20.605469 20.257812 C 24.433594 16.261719 25.023438 10.335938 22.089844 5.578125 C 21.386719 4.4375 19.703125 2.738281 18.535156 1.984375 C 16.890625 0.929688 15.085938 0.292969 13.15625 0.09375 C 12.09375 -0.0078125 11.765625 -0.0078125 10.675781 0.101562 Z M 13.476562 7.683594 C 15.199219 8.625 15.535156 11.097656 14.125 12.453125 L 13.738281 12.828125 L 14.183594 13.082031 C 15.261719 13.703125 16.261719 15.355469 16.15625 16.382812 C 16.128906 16.683594 16.117188 16.691406 15.667969 16.691406 L 15.199219 16.691406 L 15.046875 16.0625 C 14.679688 14.539062 13.46875 13.542969 11.992188 13.542969 C 10.515625 13.542969 9.300781 14.539062 8.933594 16.0625 L 8.785156 16.691406 L 8.3125 16.691406 C 7.871094 16.691406 7.851562 16.683594 7.824219 16.410156 C 7.769531 15.96875 8.078125 14.992188 8.464844 14.40625 C 8.832031 13.832031 9.441406 13.25 9.941406 12.996094 L 10.25 12.835938 L 9.855469 12.460938 C 8.445312 11.097656 8.785156 8.625 10.515625 7.683594 C 11.398438 7.203125 12.59375 7.203125 13.476562 7.683594 Z M 13.476562 7.683594 "/>
<path style=" stroke:none;fill-rule:nonzero;fill:rgb(0%,0%,0%);fill-opacity:1;" d="M 11.125 8.605469 C 9.527344 9.40625 9.808594 11.839844 11.558594 12.214844 C 13.769531 12.6875 14.878906 9.621094 12.855469 8.605469 C 12.574219 8.472656 12.214844 8.371094 11.992188 8.371094 C 11.765625 8.371094 11.40625 8.472656 11.125 8.605469 Z M 11.125 8.605469 "/>
</g>
</svg>
