<?xml version="1.0" encoding="UTF-8"?>
<svg id="Shapes" xmlns="http://www.w3.org/2000/svg" width="16" height="16" xmlns:xlink="http://www.w3.org/1999/xlink" version="1.1" viewBox="0 0 16 16">
  <defs>
    <linearGradient id="linear-gradient" x1="5.230178" y1="15.328252" x2="5.230178" y2="9.596395" gradientUnits="userSpaceOnUse">
      <stop offset="0" stop-color="#7656ad"/>
      <stop offset="1" stop-color="#9575cc"/>
    </linearGradient>
    <linearGradient id="linear-gradient-2" x1="5.236201" y1="10.215273" x2="5.236201" y2="4.917209" xlink:href="#linear-gradient"/>
  </defs>
  <g>
    <path d="M9.117206,15.328252c.463183,0,.838667-.375484.838667-.838668h0c.005977-.032503.005977-.065823,0-.098327-.335467-2.643247-1.8335-4.794863-4.725457-4.794863S.79994,11.418327.50496,14.397042c-.050113.463678.285148.880186.748825.930299.002954.00032.00591.000623.008867.000911h7.854553Z" fill="url(#linear-gradient)" stroke-width="0"/>
    <path d="M5.230417,10.221057c-.508715-.000404-1.006602-.14696-1.43441-.422225l1.43441,3.713271,1.411275-3.690136c-.422842.264663-.91245.403118-1.411275.39909Z" fill="#fff" isolation="isolate" opacity=".8" stroke-width="0"/>
    <circle cx="5.236201" cy="7.566241" r="2.649032" fill="url(#linear-gradient-2)" stroke-width="0"/>
  </g>
  <path d="M15.5,3.169237c0,.51745-.131169.976819-.393229,1.378107-.262338.401288-.636391.71198-1.122161.932077-.485769.219819-1.05074.329867-1.694913.329867h-.696974v2.434127h-2.281004V.671748h3.1047c1.066581,0,1.847202.202589,2.341865.607212.494384.404901.741715,1.0349.741715,1.890277ZM13.086993,3.248438c0-.309581-.089762-.543851-.269285-.702254s-.443529-.237605-.792015-.237605h-.432968v1.869156h.51217c.654733,0,.982099-.309581.982099-.929298Z" fill="#ca6ccd" stroke-width="0"/>
</svg>