<svg width="24" height="24" xmlns="http://www.w3.org/2000/svg" xmlns:xlink="http://www.w3.org/1999/xlink" overflow="hidden"><defs><clipPath id="clip0"><rect x="676" y="173" width="24" height="24"/></clipPath></defs><g clip-path="url(#clip0)" transform="translate(-676 -173)"><path d="M688 175C693.523 175 698 179.477 698 185 698 190.523 693.523 195 688 195 682.477 195 678 190.523 678 185 678 179.477 682.477 175 688 175ZM691.22 181.97 686.75 186.439 684.78 184.47C684.487 184.177 684.013 184.177 683.72 184.47 683.427 184.763 683.427 185.237 683.72 185.53L686.22 188.03C686.513 188.323 686.987 188.323 687.28 188.03L692.28 183.03C692.573 182.737 692.573 182.263 692.28 181.97 691.987 181.677 691.513 181.677 691.22 181.97Z" fill="#83BB41"/></g></svg>