<svg id="Icons" xmlns="http://www.w3.org/2000/svg" xmlns:xlink="http://www.w3.org/1999/xlink" viewBox="0 0 64 64">
  <defs>
    <style>
      .cls-1 {
        fill: url(#radial-gradient);
      }

      .cls-2 {
        fill: #6181b6;
      }

      .cls-3 {
        fill: #fff;
      }

      .cls-4 {
        fill: #000004;
      }
    </style>
    <radialGradient id="radial-gradient" cx="-7.55" cy="25.15" r="41.48" gradientTransform="translate(26.52 -9.31)" gradientUnits="userSpaceOnUse">
      <stop offset="0" stop-color="#fff"/>
      <stop offset="0.5" stop-color="#4c6b97"/>
      <stop offset="1" stop-color="#231f20"/>
    </radialGradient>
  </defs>
  <title>logo_php</title>
  <g>
    <ellipse class="cls-1" cx="31.59" cy="26.62" rx="31.59" ry="16.62"/>
    <ellipse class="cls-2" cx="31.59" cy="26.62" rx="30.36" ry="15.38"/>
    <g>
      <path class="cls-3" d="M37.74,31.59l1.51-7.75c.34-1.75.06-3.05-.84-3.88s-2.34-1.19-4.51-1.19H31.29L32,14.94a.49.49,0,0,0-.48-.59H28a.49.49,0,0,0-.48.4L25.87,23a4.63,4.63,0,0,0-1.08-2.38,6.28,6.28,0,0,0-5-1.82h-7a.49.49,0,0,0-.48.4L9.13,35.83a.49.49,0,0,0,.48.59h3.63a.49.49,0,0,0,.48-.4l.78-4h2.7a11.66,11.66,0,0,0,3.54-.46A6.92,6.92,0,0,0,23.34,30a8,8,0,0,0,1.53-1.9l-.65,3.33a.49.49,0,0,0,.48.59h3.6a.49.49,0,0,0,.48-.4l1.78-9.14H33c1.05,0,1.36.21,1.44.3s.23.37.06,1.28L33.11,31.4a.49.49,0,0,0,.48.59h3.66A.49.49,0,0,0,37.74,31.59Zm-16.69-6.4a4,4,0,0,1-1.27,2.46,4.9,4.9,0,0,1-3,.72H15.21l1.16-6h2.08c1.53,0,2.14.33,2.39.6A2.67,2.67,0,0,1,21.05,25.19Z"/>
      <path class="cls-3" d="M53.13,20.6a6.28,6.28,0,0,0-5-1.82h-7a.49.49,0,0,0-.48.4L37.47,35.83a.49.49,0,0,0,.48.59h3.63a.49.49,0,0,0,.48-.4l.78-4h2.7a11.66,11.66,0,0,0,3.54-.46A6.92,6.92,0,0,0,51.68,30a7.73,7.73,0,0,0,2.43-4.35A5.67,5.67,0,0,0,53.13,20.6Zm-3.76,4.59a4,4,0,0,1-1.27,2.46,4.9,4.9,0,0,1-3,.72H43.53l1.16-6h2.08c1.53,0,2.14.33,2.39.6A2.67,2.67,0,0,1,49.37,25.19Z"/>
    </g>
    <g>
      <path class="cls-4" d="M18.45,21.9a3.71,3.71,0,0,1,2.76.76,3,3,0,0,1,.33,2.62A4.39,4.39,0,0,1,20.09,28a5.33,5.33,0,0,1-3.27.83H14.61l1.35-7Zm-8.84,14h3.63l.86-4.43h3.11a11.13,11.13,0,0,0,3.38-.43A6.41,6.41,0,0,0,23,29.61a7.24,7.24,0,0,0,2.28-4.08,5.19,5.19,0,0,0-.87-4.61,5.79,5.79,0,0,0-4.59-1.65h-7Z"/>
      <path class="cls-4" d="M28,14.84h3.6l-.86,4.43H33.9q3,0,4.17,1.06t.69,3.42L37.25,31.5H33.6L35,24.13a2,2,0,0,0-.18-1.71A2.53,2.53,0,0,0,33,22H30.17L28.31,31.5h-3.6Z"/>
      <path class="cls-4" d="M46.77,21.9a3.71,3.71,0,0,1,2.76.76,3,3,0,0,1,.33,2.62A4.39,4.39,0,0,1,48.4,28a5.33,5.33,0,0,1-3.27.83H42.93l1.35-7Zm-8.84,14h3.63l.86-4.43h3.11a11.13,11.13,0,0,0,3.38-.43,6.41,6.41,0,0,0,2.41-1.45,7.24,7.24,0,0,0,2.28-4.08,5.19,5.19,0,0,0-.87-4.61,5.79,5.79,0,0,0-4.59-1.65h-7Z"/>
    </g>
  </g>
</svg>
