<?xml version="1.0" encoding="UTF-8"?>
<svg xmlns="http://www.w3.org/2000/svg" xmlns:xlink="http://www.w3.org/1999/xlink" width="24px" height="24px" viewBox="0 0 24 24" version="1.1">
<g id="surface3">
<path style="fill:none;stroke-width:6;stroke-linecap:butt;stroke-linejoin:miter;stroke:rgb(51.372552%,73.333335%,25.490198%);stroke-opacity:1;stroke-miterlimit:4;" d="M 96.006185 50.004883 C 96.006185 24.595703 75.398112 4.003581 50.004883 4.003581 C 24.595703 4.003581 4.003581 24.595703 4.003581 50.004883 C 4.003581 75.398112 24.595703 96.006185 50.004883 96.006185 C 75.398112 96.006185 96.006185 75.398112 96.006185 50.004883 Z M 96.006185 50.004883 " transform="matrix(0.244898,0,0,0.244898,0,0)"/>
<path style=" stroke:none;fill-rule:nonzero;fill:rgb(51.372552%,73.333335%,25.490198%);fill-opacity:1;" d="M 16.207031 8.617188 L 10.792969 14.039062 L 8.40625 11.652344 C 8.050781 11.296875 7.476562 11.296875 7.125 11.652344 C 6.769531 12.007812 6.769531 12.582031 7.125 12.9375 L 10.152344 15.96875 C 10.503906 16.324219 11.078125 16.324219 11.433594 15.96875 L 17.488281 9.902344 C 17.84375 9.546875 17.84375 8.972656 17.488281 8.617188 C 17.132812 8.261719 16.558594 8.261719 16.207031 8.617188 Z M 16.207031 8.617188 "/>
</g>
</svg>
