<svg width="24" height="24" xmlns="http://www.w3.org/2000/svg" xmlns:xlink="http://www.w3.org/1999/xlink" overflow="hidden"><defs><clipPath id="clip0"><rect x="704" y="185" width="24" height="24"/></clipPath></defs><g clip-path="url(#clip0)" transform="translate(-704 -185)"><path d="M716 187C721.523 187 726 191.477 726 197 726 202.523 721.523 207 716 207 710.477 207 706 202.523 706 197 706 191.477 710.477 187 716 187ZM719.53 193.47 719.446 193.397C719.185 193.203 718.827 193.201 718.564 193.39L718.47 193.47 716 195.939 713.53 193.47 713.446 193.397C713.185 193.203 712.827 193.201 712.564 193.39L712.47 193.47 712.397 193.554C712.203 193.815 712.201 194.173 712.39 194.436L712.47 194.53 714.939 197 712.47 199.47 712.397 199.554C712.203 199.815 712.201 200.173 712.39 200.436L712.47 200.53 712.554 200.603C712.815 200.797 713.173 200.799 713.436 200.61L713.53 200.53 716 198.061 718.47 200.53 718.554 200.603C718.815 200.797 719.173 200.799 719.436 200.61L719.53 200.53 719.603 200.446C719.797 200.185 719.799 199.827 719.61 199.564L719.53 199.47 717.061 197 719.53 194.53 719.603 194.446C719.797 194.185 719.799 193.827 719.61 193.564L719.53 193.47 719.446 193.397 719.53 193.47Z" fill="#C50B17"/></g></svg>