<?xml version="1.0" encoding="utf-8"?>
<!-- Generator: Adobe Illustrator 25.2.1, SVG Export Plug-In . SVG Version: 6.00 Build 0)  -->
<svg version="1.1" id="Layer_1" xmlns="http://www.w3.org/2000/svg" xmlns:xlink="http://www.w3.org/1999/xlink" x="0px" y="0px"
	 viewBox="0 0 48 48" style="enable-background:new 0 0 48 48;" xml:space="preserve">
<style type="text/css">
	.st0{fill:url(#SVGID_1_);}
	.st1{fill:#0078D4;}
	.st2{fill:#14447D;}
	.st3{fill:url(#SVGID_2_);}
	.st4{fill:#FFFFFF;}
</style>
<g>
	<linearGradient id="SVGID_1_" gradientUnits="userSpaceOnUse" x1="0.9975" y1="39.2718" x2="16.3097" y2="39.2718">
		<stop  offset="0" style="stop-color:#32BEDD"/>
		<stop  offset="0.175" style="stop-color:#32CAEA"/>
		<stop  offset="0.41" style="stop-color:#32D2F2"/>
		<stop  offset="0.775" style="stop-color:#32D4F5"/>
	</linearGradient>
	<path class="st0" d="M4.93,35.96c3.79-4.22,7.59-4.31,7.59-4.31l3.79,3.81c0,0-0.12,3.79-4.35,7.56S1,46.9,1,46.9
		S1.14,40.18,4.93,35.96z"/>
	<polygon class="st1" points="16.51,17.4 13.93,17.26 1.5,22.44 3.47,24.42 14.27,25.21 	"/>
	<polygon class="st2" points="32.12,31.52 32.24,34.1 27,46.5 25.03,44.53 24.29,33.72 	"/>
	<polygon class="st2" points="16.05,37.06 19.69,28.62 10.75,31.74 	"/>
	<linearGradient id="SVGID_2_" gradientUnits="userSpaceOnUse" x1="12.2098" y1="19.0542" x2="47.1769" y2="19.0542">
		<stop  offset="0" style="stop-color:#32BEDD"/>
		<stop  offset="0.175" style="stop-color:#32CAEA"/>
		<stop  offset="0.41" style="stop-color:#32D2F2"/>
		<stop  offset="0.775" style="stop-color:#32D4F5"/>
	</linearGradient>
	<path class="st3" d="M22.39,10.77c-9.68,8.66-10.18,17.11-10.18,17.11l8.18,8.23c0,0,8.45-0.46,17.16-10.09S47.18,2,47.18,2
		S32.07,2.11,22.39,10.77z"/>
	<path class="st1" d="M32.99,19.49c-4.86,4.84-10.95,10.13-16.41,12.79l3.81,3.83c0,0,8.71,0.05,17.36-9.66
		c6.38-7.16,8.88-19.1,9.42-24.45"/>
	<circle class="st4" cx="30.82" cy="17.31" r="4.61"/>
</g>
</svg>
