<?xml version="1.0" encoding="utf-8"?>
<!-- Generator: Adobe Illustrator 25.2.1, SVG Export Plug-In . SVG Version: 6.00 Build 0)  -->
<svg version="1.1" id="Layer_1" xmlns="http://www.w3.org/2000/svg" xmlns:xlink="http://www.w3.org/1999/xlink" x="0px" y="0px"
	 viewBox="0 0 48 48" style="enable-background:new 0 0 48 48;" xml:space="preserve">
<style type="text/css">
	.st0{fill:url(#SVGID_1_);}
	.st1{fill:#0078D4;}
	.st2{fill:#F2F2F2;}
	.st3{fill:#E6E6E6;}
</style>
<g id="a7ef0482-71f2-4b7e-b916-b1c754245bf1">
	<g>
		
			<linearGradient id="SVGID_1_" gradientUnits="userSpaceOnUse" x1="-540.3964" y1="242.9733" x2="-540.3964" y2="270.188" gradientTransform="matrix(1 0 0 -1 564 284)">
			<stop  offset="0" style="stop-color:#32BEDD"/>
			<stop  offset="0.175" style="stop-color:#32CAEA"/>
			<stop  offset="0.41" style="stop-color:#32D2F2"/>
			<stop  offset="0.775" style="stop-color:#32D4F5"/>
		</linearGradient>
		<path class="st0" d="M0.58,13.81h46.05l0,0v25.68c0,0.85-0.69,1.54-1.54,1.54l0,0H2.12c-0.85,0-1.54-0.69-1.54-1.54V13.81
			L0.58,13.81z"/>
		<path class="st1" d="M2.12,4h42.96c0.85,0,1.54,0.69,1.54,1.54c0,0,0,0,0,0v8.27l0,0H0.58l0,0V5.54C0.58,4.69,1.27,4,2.12,4
			C2.12,4,2.12,4,2.12,4z"/>
		<g>
			<path class="st2" d="M28.29,19.75l1-1c0.18-0.18,0.46-0.18,0.64,0l7.4,7.38c0.35,0.35,0.36,0.93,0,1.28l0,0l-1,1l0,0l-8.04-8.02
				C28.12,20.21,28.12,19.93,28.29,19.75L28.29,19.75z"/>
			<path class="st3" d="M29.44,34.71l-1-1c-0.18-0.18-0.18-0.46,0-0.64l7.9-7.92l0,0l1,1c0.35,0.35,0.36,0.93,0,1.28l0,0l-7.27,7.29
				C29.9,34.9,29.61,34.9,29.44,34.71L29.44,34.71z"/>
			<path class="st2" d="M18.51,19.75c0.18,0.18,0.18,0.46,0,0.64l-8.04,8.02l0,0l-1-1l0,0c-0.35-0.35-0.35-0.93,0-1.28l7.4-7.38
				c0.18-0.18,0.46-0.18,0.64,0L18.51,19.75L18.51,19.75z"/>
			<path class="st3" d="M17.37,34.72c-0.18,0.18-0.46,0.18-0.64,0l-7.27-7.29l0,0c-0.35-0.35-0.35-0.93,0-1.28l1-1l0,0l7.9,7.92
				c0.18,0.18,0.18,0.46,0,0.64L17.37,34.72L17.37,34.72z"/>
		</g>
	</g>
</g>
</svg>
